<?xml version="1.0" encoding="UTF-8"?>
<svg id="Layer_1" data-name="Layer 1" xmlns="http://www.w3.org/2000/svg" viewBox="0 0 491.52 491.52">
  <defs>
    <style>
      .cls-1 {
        fill: #fefefe;
      }

      .cls-2 {
        fill: #040404;
      }
    </style>
  </defs>
  <path class="cls-1" d="M491.0441,137.9705v353.5495H0V0h491.0441v112.1011c-9.9039-104.3106-151.1206-138.2465-208.4708-47.2281-4.3246,6.8634-7.2432,14.544-11.3608,21.2045l-195.1604.1087c-5.0594-.167-9.2652,4.073-9.0934,9.1022l-1.869,278.3819H6.2218c-1.9973,0-4.8722,4.1354-5.2077,6.2848-1.3525,8.6637-.8231,32.7861-.091,42.1349,2.3803,30.3985,28.9715,54.9044,59.0249,56.8514l251.6671.1693c27.3774.9723,60.7361-28.4404,60.7361-56.0968v-185.3979c48.8823,2.9694,95.5195-28.4462,112.0098-74.2377,2.4122-6.6984,5.9915-18.5667,6.6831-25.4077Z"/>
  <path class="cls-2" d="M491.0441,112.1011c.6161,6.4893.6528,19.413,0,25.8695-.6916,6.841-4.2709,18.7093-6.6831,25.4077-16.4903,45.7914-63.1275,77.2071-112.0098,74.2377v185.3979c0,27.6564-33.3587,57.069-60.7361,56.0968l-251.6671-.1693c-30.0534-1.947-56.6447-26.4529-59.0249-56.8514-.732-9.3488-1.2615-33.4713.091-42.1349.3355-2.1493,3.2105-6.2848,5.2077-6.2848h58.8679l1.869-278.3819c-.1718-5.0292,4.034-9.2692,9.0934-9.1022l195.1604-.1087c4.1177-6.6606,7.0362-14.3411,11.3608-21.2045,57.3502-91.0184,198.5669-57.0824,208.4708,47.2281ZM371.2017,28.0725c-72.2125,5.374-113.7077,86.2578-74.8674,148.1425,39.8821,63.5446,134.5005,59.3245,168.4298-7.5412,34.0376-67.0793-18.9074-146.157-93.5624-140.6013ZM267.0591,102.5198H83.2765l-1.9144,271.1504h176.6036c1.9972,0,4.8721,4.1352,5.2077,6.2848,3.2101,20.5605-5.3516,39.4813,6.3559,59.7488,22.6868,39.2744,82.615,25.2425,86.5839-19.5299l-.1602-183.8693-1.4875-1.3854c-29.168-5.8767-54.5847-24.2976-70.8136-48.8838l-84.014-.2199c-6.223-.687-9.6-7.4689-6.189-12.7814.5269-.8205,4.7062-3.4453,5.1703-3.4453h76.0975c-9.0618-21.5127-10.9667-44.0308-7.6576-67.069ZM246.9578,389.0002H17.2296v34.9717c0,16.3016,24.4978,38.8042,40.681,38.8042h210.1056l-9.0078-9.6669c-4.6908-6.4591-12.0506-22.279-12.0506-30.0954v-34.0136Z"/>
  <path class="cls-1" d="M267.0591,102.5198c-3.3091,23.0382-1.4042,45.5563,7.6576,67.069h-76.0975c-.4642,0-4.6435,2.6248-5.1703,3.4453-3.411,5.3125-.0341,12.0944,6.189,12.7814l84.014.2199c16.2289,24.5862,41.6456,43.0071,70.8136,48.8838l1.4875,1.3854.1602,183.8693c-3.969,44.7724-63.8972,58.8043-86.5839,19.5299-11.7075-20.2675-3.1458-39.1884-6.3559-59.7488-.3356-2.1495-3.2106-6.2848-5.2077-6.2848H81.3621l1.9144-271.1504h183.7826ZM146.2201,153.5497c-32.9087,4.0296-27.5499,51.4386,4.505,49.5904,34.3031-1.9778,29.5945-53.7658-4.505-49.5904ZM147.2202,222.5256c-33.0944,2.6056-29.3409,50.8179,2.5891,49.6444,34.6332-1.2728,31.2944-52.3121-2.5891-49.6444ZM197.8665,239.7369c-8.2607,2.7636-7.0525,14.4052,1.6889,15.1463h107.2485c9.6928-.9644,9.6772-14.417,0-15.372l-108.9373.2257ZM148.1488,291.5348c-30.2429.8048-33.368,46.0017-2.0731,49.4482,35.9372,3.9578,38.2243-50.4102,2.0731-49.4482ZM194.6132,310.7404c-4.7699,4.3742-2.0364,14.0957,4.9423,14.0862h107.2485c10.3388-1.2017,9.479-15.0884-.9569-16.3305-33.6036,2.3554-71.2911-3.0559-104.4045-.0296-2.2309.2039-5.1618.7447-6.8293,2.2739Z"/>
  <path class="cls-1" d="M371.2017,28.0725c74.6549-5.5557,127.6,73.522,93.5624,140.6013-33.9292,66.8657-128.5477,71.0858-168.4298,7.5412-38.8403-61.8847,2.6549-142.7685,74.8674-148.1425ZM384.9285,65.9767c-.4955-5.6729,1.8475-13.2791-5.5989-14.9925-13.4687-3.0991-8.1146,11.9444-10.2893,15.1661-.3388.5019-8.6127,3.9529-10.7886,5.4892-22.4026,15.8174-16.5512,52.4991,9.7487,59.6674,9.4864,2.5856,18.4437-.3147,24.8855,9.583,11.1114,17.0724-11.9646,36.4207-27.2805,22.5163-6.6748-6.0596-4.1535-17.8848-9.5462-20.1408-3.8452-1.6086-10.0339-.2445-11.2699,4.0051-4.1034,14.1085,10.7745,33.1021,24.5601,35.863.4117,5.8781-1.8509,15.2909,6.3147,16.2209,13.266,1.5109,7.1113-13.0254,10.059-15.9014,1.0101-.9855,7.9629-3.2809,10.4786-4.8413,23.2715-14.4352,19.2529-49.9597-6.3724-59.5736-9.3497-3.5077-19.2937-.1595-26.0855-9.3399-13.4839-18.2261,12.9631-38.9871,27.3026-22.5385,5.1068,5.8579,2.976,10.4637,5.4561,15.6176,3.671,7.6288,14.8841,4.6111,15.1802-4.5662.47-14.5678-12.6568-29.5232-26.7543-32.2343Z"/>
  <path class="cls-1" d="M246.9578,389.0002v34.0136c0,7.8164,7.3598,23.6363,12.0506,30.0954l9.0078,9.6669H57.9107c-16.1832,0-40.681-22.5026-40.681-38.8042v-34.9717h229.7282Z"/>
  <path class="cls-2" d="M194.6132,310.7404c1.6676-1.5292,4.5985-2.07,6.8293-2.2739,33.1134-3.0263,70.8009,2.385,104.4045.0296,10.4359,1.2421,11.2957,15.1288.9569,16.3305h-107.2485c-6.9787.0094-9.7122-9.712-4.9423-14.0862Z"/>
  <path class="cls-2" d="M197.8665,239.7369l108.9373-.2257c9.6772.955,9.6928,14.4076,0,15.372h-107.2485c-8.7414-.7411-9.9496-12.3828-1.6889-15.1463Z"/>
  <path class="cls-2" d="M146.2201,153.5497c34.0995-4.1754,38.8081,47.6126,4.505,49.5904-32.0549,1.8482-37.4137-45.5608-4.505-49.5904ZM146.1804,169.7855c-9.6678,2.1529-8.5244,18.4386,4.475,16.9814,12.7871-1.4334,9.7313-20.1449-4.475-16.9814Z"/>
  <path class="cls-2" d="M147.2202,222.5256c33.8835-2.6677,37.2223,48.3716,2.5891,49.6444-31.93,1.1735-35.6835-47.0389-2.5891-49.6444ZM147.1715,238.7824c-12.614,2.0687-8.1466,21.0157,6.0341,16.6052,9.6764-3.0096,6.1507-18.6034-6.0341-16.6052Z"/>
  <path class="cls-2" d="M148.1488,291.5348c36.1512-.962,33.8641,53.4061-2.0731,49.4482-31.2949-3.4466-28.1698-48.6435,2.0731-49.4482ZM147.1625,307.7619c-12.7575,2.473-7.9256,20.9556,6.0431,16.6109,9.8978-3.0785,5.7569-18.8983-6.0431-16.6109Z"/>
  <path class="cls-2" d="M384.9285,65.9767c14.0976,2.7111,27.2243,17.6666,26.7543,32.2343-.2961,9.1773-11.5092,12.195-15.1802,4.5662-2.4801-5.1539-.3493-9.7596-5.4561-15.6176-14.3395-16.4486-40.7865,4.3123-27.3026,22.5385,6.7918,9.1805,16.7359,5.8322,26.0855,9.3399,25.6253,9.6139,29.6439,45.1384,6.3724,59.5736-2.5156,1.5604-9.4685,3.8558-10.4786,4.8413-2.9477,2.876,3.207,17.4123-10.059,15.9014-8.1657-.93-5.903-10.3428-6.3147-16.2209-13.7856-2.7609-28.6635-21.7545-24.5601-35.863,1.236-4.2497,7.4247-5.6137,11.2699-4.0051,5.3927,2.256,2.8714,14.0812,9.5462,20.1408,15.3159,13.9044,38.3919-5.4439,27.2805-22.5163-6.4418-9.8977-15.3991-6.9974-24.8855-9.583-26.3-7.1684-32.1513-43.85-9.7487-59.6674,2.1759-1.5363,10.4498-4.9873,10.7886-5.4892,2.1747-3.2217-3.1794-18.2653,10.2893-15.1661,7.4464,1.7134,5.1033,9.3196,5.5989,14.9925Z"/>
  <path class="cls-1" d="M146.1804,169.7855c14.2063-3.1636,17.2621,15.548,4.475,16.9814-12.9994,1.4572-14.1428-14.8285-4.475-16.9814Z"/>
  <path class="cls-1" d="M147.1715,238.7824c12.1848-1.9983,15.7105,13.5955,6.0341,16.6052-14.1807,4.4106-18.6481-14.5365-6.0341-16.6052Z"/>
  <path class="cls-1" d="M147.1625,307.7619c11.8-2.2874,15.9409,13.5324,6.0431,16.6109-13.9686,4.3446-18.8006-14.1379-6.0431-16.6109Z"/>
</svg>