<?xml version="1.0" encoding="UTF-8"?>
<svg id="Layer_1" data-name="Layer 1" xmlns="http://www.w3.org/2000/svg" viewBox="0 0 520.8209 521.5501">
  <defs>
    <style>
      .cls-1 {
        fill: #fff;
      }

      .cls-2 {
        fill: #de931a;
      }

      .cls-3 {
        fill: #ef9f2d;
        stroke: #ef9f2d;
        stroke-width: 5px;
      }

      .cls-3, .cls-4 {
        stroke-miterlimit: 10;
      }

      .cls-4 {
        fill: #259eca;
        stroke: #fff;
        stroke-width: 2px;
      }

      .cls-5 {
        fill: #fefefe;
      }

      .cls-6 {
        fill: #faa22b;
      }
    </style>
  </defs>
  <g>
    <path class="cls-5" d="M257.702,59.5763c-8.7621,1.417-10.8689,13.3446-14.3954,20.1019-29.303,56.1487-79.1447,108.4218-102.0234,166.4766-39.1499,99.3432,53.4894,197.0426,154.6879,168.1879,57.42-16.3721,96.4828-72.1104,92.4575-131.8539-4.0221-59.697-80.599-144.6143-109.9217-199.8283-4.9613-9.342-7.4161-25.2494-20.8049-23.0842Z"/>
    <path class="cls-4" d="M257.702,59.5763c13.3888-2.1652,15.8436,13.7422,20.8049,23.0842,29.3228,55.214,105.8996,140.1313,109.9217,199.8283,4.0253,59.7436-35.0375,115.4818-92.4575,131.8539-101.1986,28.8547-193.8379-68.8447-154.6879-168.1879,22.8787-58.0548,72.7204-110.328,102.0234-166.4766,3.5265-6.7572,5.6333-18.6849,14.3954-20.1019ZM251.4069,364.3838c4.0303,3.7533,9.2081,3.5435,14.4019,3.2973,45.194-2.1423,82.8779-41.7747,84.3378-86.6752.3203-9.8504-7.0204-18.1998-17.0234-14.0066-9.5205,3.9909-7.0242,16.3492-8.6981,25.0475-4.6614,24.2226-25.3136,44.3691-49.1254,49.8746-6.0296,1.3941-11.2741,1.0217-16.9606,1.7894-9.6497,1.3026-14.125,13.9747-6.9321,20.6731Z"/>
    <path class="cls-5" d="M251.4069,364.3838c-7.1928-6.6985-2.7175-19.3705,6.9321-20.6731,5.6865-.7676,10.9311-.3953,16.9606-1.7894,23.8118-5.5056,44.464-25.652,49.1254-49.8746,1.6739-8.6982-.8225-21.0566,8.6981-25.0475,10.003-4.1931,17.3437,4.1563,17.0234,14.0066-1.4598,44.9005-39.1438,84.5329-84.3378,86.6752-5.1938.2462-10.3715.456-14.4019-3.2973Z"/>
  </g>
  <g>
    <path class="cls-1" d="M384.8694,69.3738c3.1517.2672,8.195,1.4518,11.3999,2.2642,7.0963,1.7988,18.6083,4.9267,11.1576,13.9558l-33.2596,33.1388.4368,27.8954c.9328,1.0935,25.3125,1.7209,28.7271,1.1691l33.661-33.4754c9.3644-7.5504,12.4659,6.3565,14.0265,13.2278,11.6831,51.4399-31.4538,97.4489-83.4297,91.2467-3.5295-.4212-9.8363-3.0885-12.69-1.427l-130.041,129.6878c-.9745,2.1309,1.2411,6.794,1.6619,9.3814,8.089,49.7404-28.4024,93.8137-79.9733,90.0115-7.4497-.5492-33.8716-4.4286-23.6755-16.2105l33.2596-33.1388-.4368-27.8954c-.9328-1.0935-25.3125-1.7209-28.7271-1.1691l-34.7795,34.5653c-8.5987,5.4563-11.6373-8.7222-12.9081-14.3176-11.5928-51.0423,31.5478-97.9749,83.4278-91.2448,3.7464.486,12.2366,3.7225,14.9095,2.1607l128.56-128.2122c.8968-1.9506-1.7179-8.2817-2.2367-11.0173-7.9996-42.1856,19.8111-85.701,63.9322-90.5963,4.2504-.4716,12.6546-.3681,16.9973,0ZM391.517,82.6345c-18.1994-2.8246-35.3199-.3098-50.4825,10.4432-21.4857,15.2373-30.7869,41.3585-24.5313,66.8924,1.2203,4.9809,5.241,10.6715,2.3458,15.5805l-137.9788,137.1982c-4.5957,1.7038-8.8157-1.4309-13.1216-2.3218-47.2115-9.7677-86.2815,28.6695-76.2591,75.638l31.7286-30.6029c4.3307-1.2429,8.8251.262,12.9424.4387,5.5853.2398,25.3351-.1576,28.7659,2.265,3.7108,2.6203,2.4139,10.2958,2.6805,14.268.6318,9.4118,1.8644,19.024,1.2901,28.5516-.6561,1.4816-1.7431,2.6511-2.7589,3.8789-7.363,8.8996-19.3928,17.1931-26.2567,26.1237-.5677.7386-1.4339.9332-1.1003,2.2106,23.1208,4.0532,46.2595-2.6335,61.7147-20.6076,13.7608-16.0035,17.7156-35.6385,13.4412-56.1331-.8395-4.0251-4.1333-8.934-2.3498-13.0963l138.9175-138.4737c4.7838-3.2988,15.0826,1.6011,21.5268,2.1159,43.122,3.4447,76.5332-35.3336,66.777-77.2357l-31.7286,30.6029c-4.3307,1.2429-8.8251-.262-12.9424-.4387-5.5853-.2398-25.3351.1576-28.7659-2.265-3.7108-2.6203-2.4139-10.2958-2.6805-14.268-.6318-9.4118-1.8644-19.024-1.2901-28.5516.6561-1.4816,1.7431-2.6511,2.7589-3.8789,7.3631-8.8997,19.3925-17.193,26.2567-26.1237.5677-.7386,1.4339-.9332,1.1003-2.2106Z"/>
    <path class="cls-1" d="M152.725,443.6797c-1.9619,0-3.9663-.0742-5.9575-.2217-9.9395-.7334-21.5825-3.9404-23.0728-7.5469-.3716-.8994.0913-2.1201,1.376-3.6289l34.0796-33.9551-.4736-30.248-.7002-.8203c-.916-1.0742-1.6987-1.5693-10.6602-2.042-4.4951-.2373-10.0269-.3848-14.436-.3848-4.8921,0-6.021.1826-6.3921.2422l-.9521.1543-35.2129,34.9961c-.6807.3955-1.292.6035-1.7808.6045-2.2192,0-4.3281-4.3418-6.2686-12.9053l-.0693-.3047c-4.8677-21.4336.2178-43.5947,13.9531-60.7988,13.915-17.4307,34.5493-27.4268,56.6108-27.4268,3.1626,0,6.3765.209,9.5527.6201,1,.1299,2.5923.542,4.2783.9775,2.9575.7646,6.3096,1.6309,8.9131,1.6309,1.4761,0,2.6592-.2725,3.6182-.833l.332-.1943,129.2134-128.8638.2256-.4897c1.0186-2.2134.2432-5.1567-1.1543-9.7412-.374-1.2275-.7275-2.3872-.8604-3.0884-3.9268-20.707.999-42.2949,13.5137-59.229,11.6934-15.8218,28.6699-25.7041,47.8027-27.8267,1.7305-.1924,4.4121-.2979,7.5527-.2979,3.2432,0,6.6377.1167,8.8604.3052,2.2324.1895,6.1084.9644,10.915,2.1831,2.8389.7192,10.3799,2.6309,11.2383,5.2529.3691,1.1265-.7832,2.8066-1.5684,3.7769l-34.0537,33.9297.4736,30.248.7002.8208c.916,1.0742,1.6982,1.5688,10.6611,2.0415,4.4971.2373,10.0293.3848,14.4375.3848,4.8896,0,6.0186-.1826,6.3896-.2427l.9521-.1538,34.2295-34.0396c1.1689-.9214,2.2227-1.4272,2.9775-1.4272,3.1553,0,5.3721,9.7612,6.0996,12.9692l.0244.1069c4.875,21.4653-.1328,43.5532-13.7412,60.5991-13.9736,17.5044-34.877,27.5444-57.3496,27.5459-2.9971,0-6.0439-.1821-9.0576-.542-.8955-.1064-2.1582-.4272-3.4951-.7671-2.252-.5718-4.8047-1.2202-7.0693-1.2202-1.5908,0-2.8965.3096-3.9912.9473l-.335.1948-130.6992,130.3438-.2256.4941c-1.1328,2.4775-.1919,5.5381.7178,8.4971.2993.9717.6084,1.9775.7119,2.6133,3.7085,22.8037-2.2827,45.4287-16.437,62.0723-13.5381,15.918-32.8564,24.6855-54.397,24.6875ZM165.936,400.2041c-.3994.7129-.9824,1.4053-1.6396,2.1865l-.4697.5615c-3.3647,4.0664-7.9199,8.1592-12.3252,12.1162-5.0322,4.5205-10.2354,9.1953-13.9985,14.0918-.0283.0273-.0864.0752-.1401.124-.5405.4912-2.1855,1.9863-1.4844,4.6719l.4868,1.8643,1.8979.333c4.4995.7891,9.0405,1.1885,13.4961,1.1885,20.2559,0,38.3721-8.0957,51.0117-22.7949,13.8711-16.1318,18.748-36.4307,14.103-58.7012-.3037-1.4561-.8477-2.9229-1.3735-4.3408-.8657-2.335-1.7583-4.7432-1.3105-6.502l138.1992-137.7583c.584-.3257,1.4443-.4902,2.5615-.4902,2.5244,0,5.7891.8354,8.9463,1.6431,2.8232.7227,5.4893,1.4048,7.8955,1.5967,1.8535.1484,3.7256.2231,5.5674.2231,20.3877,0,39.3066-9.1016,51.9062-24.9717,12.5498-15.8081,17.0938-36.2769,12.4648-56.1577l-1.1992-5.1494-34.9541,33.7134c-.6875.1387-1.4326.2065-2.2598.2065-1.5127,0-3.0732-.2207-4.7246-.4546-1.4102-.1997-2.8682-.4062-4.3271-.4688-1.2285-.0527-3.0928-.0757-5.252-.1021-5.3574-.0654-19.5898-.2397-21.9385-1.6338-1.5195-1.0742-1.4297-5.5269-1.3701-8.4731.0254-1.2715.0498-2.4722-.0215-3.5278-.1553-2.3208-.3477-4.6538-.54-6.9946-.5586-6.7788-1.1348-13.7822-.7822-20.5747.3994-.7124.9814-1.4048,1.6387-2.1851l.4707-.563c3.3652-4.0664,7.9199-8.1587,12.3252-12.1162,5.0312-4.52,10.2354-9.1943,13.999-14.0913.0273-.0269.0859-.0747.1396-.124.541-.4912,2.1865-1.9868,1.4844-4.6738l-.4971-1.9038-1.9453-.3018c-4.7354-.7349-9.3711-1.1074-13.7783-1.1074-14.5205,0-27.6084,4.0601-38.8994,12.0679-22.1885,15.7363-32.2803,43.2339-25.71,70.0537.3828,1.563.9834,3.1211,1.5635,4.6274,1.4668,3.8081,2.3008,6.3296,1.2725,8.4185l-137.1514,136.3755c-.3921.0957-.7954.1426-1.2207.1426-1.5938,0-3.3525-.6562-5.2144-1.3496-1.4292-.5332-2.9067-1.084-4.4829-1.4092-5.1016-1.0557-10.2451-1.5908-15.2881-1.5908-20.4653,0-39.3374,8.8174-51.7773,24.1924-12.6616,15.6484-17.1841,35.749-12.7349,56.6006l1.1279,5.2842,35.0366-33.7939c.688-.1396,1.4336-.207,2.2607-.207,1.5137,0,3.0737.2207,4.7251.4541,1.4097.2002,2.8672.4062,4.3257.4688,1.2285.0527,3.0947.0762,5.2554.1025,5.3569.0654,19.5864.2402,21.9346,1.6338,1.52,1.0742,1.4302,5.5273,1.3711,8.4736-.0259,1.2715-.0498,2.4717.021,3.5273.1558,2.3213.3477,4.6543.5405,6.9961.5581,6.7783,1.1348,13.7812.7817,20.5732Z"/>
    <path class="cls-1" d="M132.4594,436.6953c-1.9019-.625-3.3892-1.2666-4.3096-1.834l3.6982-3.6855c-.2793,1.5107-.082,2.8633.1602,3.791l.4512,1.7285ZM160.3173,363.9287c.0469.0078.0918.0156.1357.0234.0059.04.0112.0801.0171.1211-.0508-.0498-.1016-.0977-.1528-.1445ZM369.8452,151.8804c-.0068-.0391-.0117-.0796-.0176-.1206.0508.0493.1016.0977.1533.145-.0469-.0083-.0928-.0161-.1357-.0244ZM398.4516,84.6548c.2783-1.5093.0801-2.8623-.1621-3.7905l-.3984-1.5244c2.1885.6553,3.5088,1.187,4.3037,1.5854l-3.7432,3.7295Z"/>
    <path class="cls-3" d="M391.517,82.6345c.3336,1.2774-.5326,1.472-1.1003,2.2106-6.8642,8.9307-18.8936,17.224-26.2567,26.1237-1.0158,1.2278-2.1028,2.3973-2.7589,3.8789-.5743,9.5276.6583,19.1398,1.2901,28.5516.2666,3.9722-1.0303,11.6477,2.6805,14.268,3.4308,2.4226,23.1806,2.0252,28.7659,2.265,4.1173.1768,8.6117,1.6816,12.9424.4387l31.7286-30.6029c9.7561,41.902-23.6551,80.6804-66.777,77.2357-6.4442-.5148-16.743-5.4147-21.5268-2.1159l-138.9175,138.4737c-1.7836,4.1624,1.5103,9.0713,2.3498,13.0963,4.2744,20.4946.3196,40.1296-13.4412,56.1331-15.4552,17.9741-38.594,24.6608-61.7147,20.6076-.3336-1.2775.5327-1.472,1.1003-2.2106,6.8639-8.9306,18.8937-17.2241,26.2567-26.1237,1.0158-1.2278,2.1028-2.3973,2.7589-3.8789.5743-9.5276-.6583-19.1398-1.2901-28.5516-.2666-3.9722,1.0303-11.6477-2.6805-14.268-3.4308-2.4226-23.1806-2.0252-28.7659-2.265-4.1173-.1768-8.6117-1.6816-12.9424-.4387l-31.7286,30.6029c-10.0224-46.9685,29.0476-85.4057,76.2591-75.638,4.3059.8908,8.5258,4.0256,13.1216,2.3218l137.9788-137.1982c2.8952-4.909-1.1255-10.5996-2.3458-15.5805-6.2556-25.5339,3.0456-51.6551,24.5313-66.8924,15.1625-10.753,32.2831-13.2679,50.4825-10.4432ZM321.8593,186.6516c-4.8868.8277-11.4975,7.7017-15.3358,11.2304-38.3647,35.2699-74.501,73.1599-112.698,108.6348-12.7682,15.5521,6.2949,35.7543,22.9167,23.5751,40.9053-40.4472,84.1409-78.9093,123.9141-120.2882,5.2888-13.4201-4.333-25.6019-18.797-23.152Z"/>
    <path class="cls-2" d="M321.8593,186.6516c14.4641-2.4499,24.0858,9.7319,18.797,23.152-39.7732,41.379-83.0088,79.841-123.9141,120.2882-16.6219,12.1792-35.6849-8.023-22.9167-23.5751,38.197-35.4748,74.3333-73.3649,112.698-108.6348,3.8383-3.5287,10.449-10.4026,15.3358-11.2304ZM324.0555,198.4057c-.6262.1901-8.4386,7.4357-9.7815,8.6733-37.5591,34.6156-72.9837,71.7173-110.4801,106.4267-5.4487,4.6387.9562,11.0288,5.9621,6.6732l120.1036-115.9888c1.4706-3.8757-1.937-6.9581-5.8041-5.7844Z"/>
    <path class="cls-6" d="M324.0555,198.4057c3.8671-1.1737,7.2747,1.9087,5.8041,5.7844l-120.1036,115.9888c-5.0059,4.3556-11.4108-2.0345-5.9621-6.6732,37.4964-34.7094,72.921-71.811,110.4801-106.4267,1.3429-1.2377,9.1552-8.4833,9.7815-8.6733Z"/>
  </g>
</svg>