<?xml version="1.0" encoding="UTF-8"?>
<svg id="Layer_1" data-name="Layer 1" xmlns="http://www.w3.org/2000/svg" viewBox="0 0 600 600">
  <defs>
    <style>
      .cls-1 {
        fill: #4e4e4e;
      }

      .cls-2 {
        fill: #c7c7c7;
      }

      .cls-3 {
        fill: #6b6b6b;
      }

      .cls-4 {
        fill: gray;
      }

      .cls-5 {
        fill: #fefefe;
      }
    </style>
  </defs>
  <path class="cls-5" d="M600,0v600H0V0h600ZM124,272c-1.8918,1.1779-4.61,1.3553-6.9003,3.6012-4.9119,4.8168-5.3872,13.9061-5.0997,20.3988-5.2473,1.8915-10.3849,4.9696-15,8-6.2185,4.0833-10.0767,6.0408-11.0024,14.4977-.2159,1.9722-.4129,10.0768.0024,11.5023-4.9809,2.5476-9.3806,5.9154-14,9-.3282.2191-2.0987-.1088-3.5149.9419-8.1495,6.046-8.555,15.8509-6.4851,25.0581-4.8488,1.1522-9.7889,4.4022-14,7-4.6512,2.8693-7.363,2.9037-9.4922,9.0079-7.0819,20.3028,14.4655,56.5803,37.9307,52.9317,3.3739-.5246,3.2596-2.1691,4.5616-2.9396,1.487-.88,3.4454-1.1787,5-2,.0272.1191,1.3572.5559,1.7406,1.7151,4.6415,14.0329,21.9045,38.2019,39.0172,30.4988,1.4079-.6337,1.8897-2.0168,2.2422-2.2138,1.305-.7296,4.333-1.321,5-2,2.6528-.5917,1.8959,1.3956,2.5365,2.9119,5.5787,13.2057,21.6121,36.4466,38.7245,28.8273,1.9835-.8832,2.2179-2.4057,2.7391-2.7391,1.4017-.8967,3.4892-1.1601,5-2,1.3712,8.7738,12.738,25.2259,20.0629,30.4371,6.5066,4.6291,19.8643,9.1635,24.9371.5629l328.9377-190.5623c14.264-16.265-2.6613-48.8557-19.9377-56.4377-2.7183-1.1929-3.3965-2.1666-7-2,.6042-3.1594,4.569-4.1623,6.451-7.0488,9.9166-15.2097-7.1803-46.1054-22.451-52.9512-3.0098-1.3493-4.2974-2.3903-8-2-.0466-3.1049,3.381-2.4474,5.4616-5.042,12.1727-15.18-5.7591-45.6651-20.4616-53.958-2.5202-1.4215-4.9395-3.016-8-3,1.4751-.9974,6.0402-5.1581,6.8635-6.6362,10.2853-18.4656-14.6797-60.8393-36.8985-54.8935-108.3732,65.7782-221.3686,124.5351-328.9649,191.5296Z"/>
  <path class="cls-4" d="M483,142c-22.055,14.9125-52.065,29.0138-75.6963,42.8037-79.7552,46.5406-158.9559,93.46-238.6054,139.3945-3.1987,1.8447-7.0008,4.4638-10.6983,4.8018,10.0337-15.822-8.0411-49.268-24.7283-54.772-3.3443-1.1031-6.4144-.7724-9.2717-2.228,107.5963-66.9946,220.5917-125.7514,328.9649-191.5296,22.2189-5.9458,47.1839,36.4279,36.8985,54.8935-.8233,1.4781-5.3884,5.6388-6.8635,6.6362Z"/>
  <path class="cls-4" d="M228,515c9.3517-15.8552-5.4077-45.5606-20-54l329-193c17.2765,7.582,34.2018,40.1727,19.9377,56.4377l-328.9377,190.5623Z"/>
  <path class="cls-4" d="M491,145c14.7025,8.2928,32.6343,38.7779,20.4616,53.958-2.0806,2.5947-5.5083,1.9371-5.4616,5.042-2.6528.2796-8.0517,3.4129-10.697,4.803-51.0044,26.804-102.4623,60.2495-152.606,89.394-39.6837,23.0649-79.7175,45.5511-119.3936,68.6064-14.0113,8.1418-27.4858,17.5403-42.3034,24.1966,2.2217-3.5485,2.4813-14.2276,2.0062-18.5054-1.2589-11.3343-12.3866-28.4596-22.0062-34.4946l330-193Z"/>
  <path class="cls-4" d="M514,206c15.2707,6.8458,32.3676,37.7415,22.451,52.9512-1.882,2.8865-5.8468,3.8894-6.451,7.0488-5.0273.2324-14.4655,7.5344-19.303,10.197-102.2688,56.2878-202.4352,121.2483-305.697,175.803,8.9482-16.5533-5.9828-44.9056-21-53l330-193Z"/>
  <path class="cls-2" d="M124,272c2.8574,1.4556,5.9275,1.125,9.2717,2.228,16.6872,5.504,34.762,38.9499,24.7283,54.772-2.0492,3.2314-6.1318,2.8022-6.0041,5.9945,2.8399-.2108,6.599,1.4966,9.0041,3.0055,9.6196,6.035,20.7473,23.1603,22.0062,34.4946.4751,4.2778.2155,14.957-2.0062,18.5054-.9383,1.4986-5.2253,3.1852-5.994,4.9888,2.8948.4275,6.4465,1.638,8.994,3.0112,15.0172,8.0944,29.9482,36.4467,21,53-.7108.3755-1.5581.5094-2.2364.9694l-4.7646,5.0213c2.7988.4463,7.6628,1.657,10.001,3.0093,14.5923,8.4394,29.3517,38.1448,20,54-5.0728,8.6006-18.4305,4.0662-24.9371-.5629-7.3249-5.2112-18.6917-21.6633-20.0629-30.4371-.9899-6.3339-.5298-17.9459,4.3375-22.6591,2.1119-2.045,6.0998-1.4317,5.6602-4.3361-6.7831.523-12.0866-4.7046-17.5086-7.9837,4.8485,11.56,10.6777,25.3495,2.5109,36.9789-.5212.3334-.7555,1.856-2.7391,2.7391-17.1123,7.6194-33.1457-15.6216-38.7245-28.8273-.6406-1.5163.1163-3.5036-2.5365-2.9119,2.9493-3.0024-4.0492-17.7312,4.967-25.5319,1.7815-1.5413,4.2026-1.7671,5.0255-3.4555l-8.2312-2.2739-10.7524-7.7326c6.5895,12.1311,12.9837,28.4841,3.991,40.9938-.3524.197-.8343,1.5801-2.2422,2.2138-17.1127,7.7031-34.3757-16.4659-39.0172-30.4988-.3834-1.1592-1.7134-1.596-1.7406-1.7151-.0363-.159.9918-1.6502.7327-3.178-.2447-1.4427-.266-5.5578-1.7224-5.8169l-4.0103,10.9949c-1.302.7705-1.1877,2.415-4.5616,2.9396-23.4652,3.6486-45.0126-32.6289-37.9307-52.9317,2.1292-6.1042,4.841-6.1386,9.4922-9.0079,3.2599,1.6283,6.4961.8541,10.287,2.2129,3.78,1.3549,6.0116,4.7642,9.708,5.7819-1.4228-5.1041-4.8256-9.7936-5.9949-14.9949-2.0699-9.2072-1.6644-19.0121,6.4851-25.0581,1.4162-1.0507,3.1867-.7228,3.5149-.9419,9.4854-.9811,16.7075,5.3239,23.5098,10.98-3.5082-6.0188-5.9089-11.5279-7.7728-18.2556-.3227-1.165-1.7027-1.6069-1.737-1.7244-.4154-1.4254-.2183-9.5301-.0024-11.5023.9258-8.4569,4.7839-10.4144,11.0024-14.4977,3.3125,1.6354,6.3846.8124,10.2336,2.2663,4.687,1.7704,7.9267,5.7605,11.7563,8.7336l-6.99-18.9998c-.2875-6.4927.1878-15.582,5.0997-20.3988,2.2903-2.2459,5.0085-2.4233,6.9003-3.6012ZM155,324c7.6045-15.2716-10.175-46.0524-27-47-18.5825-1.0466-11.294,26.741-5.1938,36.6938,5.8076,9.4754,24.615,25.5262,32.1938,10.3062ZM102,310c-.4414-.0512-.9322-1.256-3.1954-.8599-17.0786,2.9892-6.2289,32.2315,1.2171,41.3381,6.2753,7.6748,23.3261,19.1213,28.9783,5.5217,7.004-16.852-9.0042-43.9123-27-46ZM126.5,323v1c.6494-.3333.6494-.6667,0-1ZM144.9949,334.0103c-7.1744.2413-11.7584-6.2276-17.9736-8.5213,6.6572,11.0315,12.8797,32.1713-1.0167,40.0062.9617,1.9329,13.666,4.7559,14.0068,9.4961,1.7647.2567.7514-1.0321.5462-2.033-.7503-3.6605-2.6378-6.2515-3.507-9.5087-2.1835-8.1817-3.3187-16.1255,1.1169-23.7823l6.8276-5.657ZM177,386c9.072-15.4645-8.4058-46.1807-26-47-14.8393-.691-13.2647,17.3544-9.775,27.275,3.7849,10.7596,19.1777,30.2632,32.0034,24.4497,3.216-1.4577,2.552-2.6456,3.7716-4.7247ZM77,344c-.1876-.0178-.7051-.9963-2.1944-.8453-15.5552,1.5772-9.4146,26.4519-3.9993,35.5389,5.733,9.6201,25.6073,27.5564,33.1936,11.3064,7.4302-15.9158-9.2475-44.3176-27-46ZM96.5,351v1c.6494-.3333.6494-.6667,0-1ZM98.4902,353.02c-.988.696.5377,1.3739,1.0197,1.96.9941-.6566-.4658-1.3233-1.0197-1.96ZM117.9989,366.0107c-7.4126-.4966-11.8881-6.8912-17.9779-9.5216,4.3879,6.4644,8.5423,14.4535,7.9841,22.5058,2.5497.4011,1.5611-.1931,2.0925-1.4022,2.3422-5.3295,2.2269-7.8587,7.9013-11.5819ZM152,417c7.4629-16.1754-9.2271-44.7769-27-46-3.1602-.2175-4.4423-.4762-7.5219,1.9776-14.7292,11.7363,8.3185,56.1343,29.5768,49.5723,3.1229-.964,3.8036-3.0758,4.9451-5.5499ZM53,377c-18.7716-1.0617-11.2408,26.8193-5.1938,36.6938,5.7366,9.3676,24.9964,25.5818,32.1938,10.3062,7.3736-15.6495-9.91-46.0334-27-47ZM115.7306,407.3127c.5849.4408.8015,3.1679,2.2482,2.1983l-8.9676-22.5049c-.1452,6.8554-4.4028,9.9411-9.0109,13.9839,5.0227.1113,11.7883,3.3523,15.7303,6.3227ZM168.9939,396.0112c-7.0819-.3718-12.2423-5.1346-17.972-8.523,5.5014,9.3727,11.4223,32.2451-.4376,38.5966-1.7681.9469-4.4615.249-4.5795,1.9052,7.3366-.7597,12.5544,4.9155,18.9901,7.0049-4.3503-10.248-9.9092-28.7627.4644-37.0401,1.324-1.0565,3.6613-.2492,3.5347-1.9436ZM94.9973,400.0049c-6.3575.9782-10.5025-4.1691-15.9922-5.9997,2.4346,6.4509,5.9268,12.9498,6.0049,19.9901l3.5432-7.942,6.4442-6.0484ZM202,447c7.4458-16.5142-9.0653-44.2493-27-46-.1873-.0183-.6899-.9733-2.1901-.8378-1.6595.1499-3.5318,1.2666-4.8569,2.2931-15.7765,12.2222,7.9709,56.6405,29.3422,50.335,2.5559-.7541,3.7712-3.7196,4.7048-5.7904ZM128,452c7.8039-16.1102-10.0962-47.0505-28-47-3.2729.0092-5.4943,1.5174-7.5328,3.9668-12.2332,14.6991,10.4846,53.5031,29.5644,48.5591,3.7241-.965,4.5347-2.5662,5.9684-5.5259ZM149,433c-5.5273.0338-8.4836,1.6647-10.4827,7.0169-6.1569,16.4835,13.8092,50.7532,33.5354,44.5343,2.4328-.767,4.1413-3.2514,4.9473-5.5512,5.7389-16.3759-9.7557-46.1114-28-46ZM165.5,436v1c.6494-.3333.6494-.6667,0-1ZM174.5,447v1c.6494-.3333.6494-.6667,0-1ZM225,509c7.946-16.3704-9.0707-44.7412-27-46-.4143-.0291-.4793-.8751-2.7041-.3776-14.7892,3.3072-8.3357,25.4282-3.0962,34.6779,5.5286,9.76,24.8824,28.0122,32.8003,11.6997Z"/>
  <path class="cls-3" d="M530,266c3.6035-.1666,4.2817.8071,7,2l-329,193c-2.3382-1.3523-7.2022-2.5631-10.001-3.0093l4.7646-5.0213c.6782-.4599,1.5255-.5938,2.2364-.9694,103.2617-54.5547,203.4281-119.5153,305.697-175.803,4.8376-2.6625,14.2757-9.9645,19.303-10.197Z"/>
  <path class="cls-3" d="M506,204c3.7026-.3903,4.9902.6507,8,2l-330,193c-2.5475-1.3731-6.0992-2.5837-8.994-3.0112.7687-1.8037,5.0557-3.4902,5.994-4.9888,14.8176-6.6563,28.2921-16.0548,42.3034-24.1966,39.6761-23.0553,79.7099-45.5415,119.3936-68.6064,50.1437-29.1445,101.6016-62.59,152.606-89.394,2.6453-1.3902,8.0442-4.5234,10.697-4.803Z"/>
  <path class="cls-3" d="M483,142c3.0605-.016,5.4798,1.5785,8,3l-330,193c-2.4052-1.5089-6.1642-3.2163-9.0041-3.0055-.1276-3.1923,3.9549-2.7631,6.0041-5.9945,3.6974-.3379,7.4995-2.957,10.6983-4.8018,79.6495-45.9345,158.8503-92.8539,238.6054-139.3945,23.6313-13.7899,53.6413-27.8912,75.6963-42.8037Z"/>
  <path class="cls-4" d="M129,459c8.9927-12.5097,2.5985-28.8627-3.991-40.9938l10.7524,7.7326,8.2312,2.2739c-.8229,1.6885-3.244,1.9142-5.0255,3.4555-9.0162,7.8007-2.0177,22.5295-4.967,25.5319-.667.679-3.695,1.2704-5,2Z"/>
  <path class="cls-4" d="M178,486c8.1668-11.6294,2.3376-25.4189-2.5109-36.9789,5.4219,3.2791,10.7254,8.5067,17.5086,7.9837.4396,2.9044-3.5483,2.2911-5.6602,4.3361-4.8673,4.7132-5.3274,16.3252-4.3375,22.6591-1.5108.8399-3.5983,1.1033-5,2Z"/>
  <path class="cls-4" d="M112,296l6.99,18.9998c-3.8296-2.973-7.0693-6.9632-11.7563-8.7336-3.8491-1.4538-6.9211-.6309-10.2336-2.2663,4.6151-3.0304,9.7527-6.1085,15-8Z"/>
  <path class="cls-4" d="M72,339c4.6194-3.0846,9.0191-6.4524,14-9,.0342.1175,1.4142.5594,1.737,1.7244,1.8639,6.7278,4.2646,12.2368,7.7728,18.2556-6.8023-5.6561-14.0244-11.9611-23.5098-10.98Z"/>
  <path class="cls-4" d="M62,365c1.1693,5.2013,4.5721,9.8907,5.9949,14.9949-3.6963-1.0177-5.928-4.427-9.708-5.7819-3.7909-1.3588-7.0271-.5846-10.287-2.2129,4.2111-2.5978,9.1512-5.8478,14-7Z"/>
  <path class="cls-4" d="M86,429c-1.5546.8213-3.513,1.12-5,2l4.0103-10.9949c1.4565.2591,1.4777,4.3742,1.7224,5.8169.2591,1.5277-.769,3.019-.7327,3.178Z"/>
  <path class="cls-1" d="M155,324c-19.2601-4.5232-31.5373-27.9953-27-47,16.825.9476,34.6045,31.7284,27,47Z"/>
  <path class="cls-1" d="M128,452c-13.3635-3.1029-25.8468-19.6049-27.7368-32.7598-.7398-5.1491.7816-9.4284-.2632-14.2402,17.9038-.0505,35.8039,30.8898,28,47Z"/>
  <path class="cls-1" d="M104,390c-18.3444-3.5087-32.2218-28.1151-27-46,17.7525,1.6824,34.4302,30.0842,27,46Z"/>
  <path class="cls-1" d="M80,424c-18.9756-4.6522-31.6693-28.2554-27-47,17.09.9666,34.3736,31.3505,27,47Z"/>
  <path class="cls-1" d="M177,386c-18.1655-6.7509-30.5396-27.8547-26-47,17.5942.8193,35.072,31.5355,26,47Z"/>
  <path class="cls-1" d="M129,356c-18.6471-4.214-31.9893-27.6705-27-46,17.9958,2.0877,34.004,29.148,27,46Z"/>
  <path class="cls-1" d="M225,509c-18.405-4.2219-31.061-28.0962-27-46,17.9293,1.2588,34.946,29.6296,27,46Z"/>
  <path class="cls-1" d="M202,447c-18.7281-4.3044-31.5373-27.725-27-46,17.9347,1.7507,34.4458,29.4858,27,46Z"/>
  <path class="cls-1" d="M177,479c-19.2545-3.9102-31.3361-27.3176-28-46,18.2443-.1114,33.7389,29.6241,28,46Z"/>
  <path class="cls-1" d="M152,417c-18.1837-3.8316-31.2793-28.2284-27-46,17.7729,1.2231,34.4629,29.8246,27,46Z"/>
  <path class="cls-3" d="M149,433c-3.3361,18.6824,8.7455,42.0898,28,46-.806,2.2998-2.5145,4.7842-4.9473,5.5512-19.7261,6.2189-39.6922-28.0508-33.5354-44.5343,1.9991-5.3521,4.9554-6.9831,10.4827-7.0169Z"/>
  <path class="cls-3" d="M125,371c-4.2793,17.7716,8.8163,42.1684,27,46-1.1415,2.4741-1.8222,4.5859-4.9451,5.5499-21.2583,6.562-44.306-37.836-29.5768-49.5723,3.0796-2.4538,4.3617-2.195,7.5219-1.9776Z"/>
  <path class="cls-3" d="M175,401c-4.5373,18.275,8.2719,41.6956,27,46-.9337,2.0709-2.149,5.0363-4.7048,5.7904-21.3713,6.3055-45.1187-38.1128-29.3422-50.335,1.3251-1.0266,3.1974-2.1433,4.8569-2.2931,1.5003-.1355,2.0028.8195,2.1901.8378Z"/>
  <path class="cls-3" d="M102,310c-4.9893,18.3295,8.3529,41.786,27,46-5.6522,13.5996-22.703,2.153-28.9783-5.5217-7.446-9.1066-18.2957-38.3489-1.2171-41.3381,2.2631-.3961,2.7539.8087,3.1954.8599Z"/>
  <path class="cls-3" d="M151,339c-4.5396,19.1453,7.8345,40.2491,26,47-1.2196,2.079-.5556,3.2669-3.7716,4.7247-12.8257,5.8136-28.2185-13.69-32.0034-24.4497-3.4897-9.9206-5.0643-27.966,9.775-27.275Z"/>
  <path class="cls-3" d="M53,377c-4.6693,18.7446,8.0244,42.3478,27,47-7.1974,15.2756-26.4572-.9386-32.1938-10.3062-6.0469-9.8745-13.5778-37.7555,5.1938-36.6938Z"/>
  <path class="cls-3" d="M198,463c-4.061,17.9038,8.595,41.7781,27,46-7.9179,16.3125-27.2718-1.9396-32.8003-11.6997-5.2395-9.2497-11.693-31.3707,3.0962-34.6779,2.2248-.4975,2.2898.3485,2.7041.3776Z"/>
  <path class="cls-3" d="M77,344c-5.2218,17.8849,8.6556,42.4913,27,46-7.5863,16.2501-27.4606-1.6863-33.1936-11.3064-5.4153-9.0869-11.5559-33.9617,3.9993-35.5389,1.4892-.151,2.0068.8275,2.1944.8453Z"/>
  <path class="cls-3" d="M100,405c1.0448,4.8118-.4766,9.0911.2632,14.2402,1.89,13.1549,14.3733,29.6569,27.7368,32.7598-1.4337,2.9597-2.2443,4.5609-5.9684,5.5259-19.0798,4.944-41.7975-33.86-29.5644-48.5591,2.0385-2.4495,4.2599-3.9576,7.5328-3.9668Z"/>
  <path class="cls-3" d="M128,277c-4.5373,19.0047,7.7399,42.4768,27,47-7.5788,15.22-26.3862-.8308-32.1938-10.3062-6.1002-9.9528-13.3887-37.7404,5.1938-36.6938Z"/>
  <path class="cls-4" d="M168.9939,396.0112c.1267,1.6945-2.2107.8872-3.5347,1.9436-10.3735,8.2774-4.8146,26.7921-.4644,37.0401-6.4356-2.0894-11.6535-7.7645-18.9901-7.0049.118-1.6562,2.8114-.9583,4.5795-1.9052,11.8599-6.3516,5.939-29.224.4376-38.5966,5.7297,3.3884,10.8901,8.1512,17.972,8.523Z"/>
  <path class="cls-4" d="M144.9949,334.0103l-6.8276,5.657c-4.4356,7.6568-3.3004,15.6006-1.1169,23.7823.8693,3.2571,2.7568,5.8482,3.507,9.5087.2051,1.0009,1.2184,2.2897-.5462,2.033-.3407-4.7402-13.0451-7.5632-14.0068-9.4961,13.8965-7.8349,7.6739-28.9746,1.0167-40.0062,6.2153,2.2937,10.7993,8.7626,17.9736,8.5213Z"/>
  <path class="cls-4" d="M117.9989,366.0107c-5.6744,3.7233-5.5591,6.2525-7.9013,11.5819-.5314,1.2091.4571,1.8034-2.0925,1.4022.5583-8.0523-3.5962-16.0413-7.9841-22.5058,6.0898,2.6304,10.5653,9.025,17.9779,9.5216Z"/>
  <path class="cls-4" d="M115.7306,407.3127c-3.9419-2.9704-10.7076-6.2114-15.7303-6.3227,4.6081-4.0429,8.8656-7.1285,9.0109-13.9839l8.9676,22.5049c-1.4467.9696-1.6632-1.7575-2.2482-2.1983Z"/>
  <path class="cls-4" d="M94.9973,400.0049l-6.4442,6.0484-3.5432,7.942c-.0781-7.0402-3.5703-13.5391-6.0049-19.9901,5.4897,1.8306,9.6347,6.9779,15.9922,5.9997Z"/>
  <path class="cls-4" d="M98.4902,353.02c.5539.6367,2.0138,1.3034,1.0197,1.96-.482-.5862-2.0077-1.264-1.0197-1.96Z"/>
  <path class="cls-4" d="M96.5,351c.6494.3333.6494.6667,0,1v-1Z"/>
  <path class="cls-4" d="M165.5,436c.6494.3333.6494.6667,0,1v-1Z"/>
  <path class="cls-4" d="M174.5,447c.6494.3333.6494.6667,0,1v-1Z"/>
  <path class="cls-4" d="M126.5,323c.6494.3333.6494.6667,0,1v-1Z"/>
</svg>