<?xml version="1.0" encoding="UTF-8"?>
<svg id="Layer_1" data-name="Layer 1" xmlns="http://www.w3.org/2000/svg" viewBox="0 0 384 384">
  <defs>
    <style>
      .cls-1 {
        fill: #060606;
      }

      .cls-2 {
        fill: #fefefe;
      }
    </style>
  </defs>
  <path class="cls-2" d="M384,0v384H0V0h384ZM255,15.375c-.6319,2.9392.4584,7.6822,0,10.875l-130.8672.0078c-40.5161,3.7507-75.7533,32.8996-85.8248,72.4252-3.5079,13.7666-3.3573,26.6862-3.058,40.817h-11.625c-2.3099,0-3.2362,3.7189-3.4094,5.5906-.8948,9.6675-1.0876,32.598.018,42.0508.4277,3.657,2.6332,5.6878,6.3558,5.6442,33.3818-2.3101,70.6508,2.9492,103.5714,0,3.2721-.2931,5.7303-1.3505,6.2951-4.9549,1.9897-12.6999-1.356-30.1877.0019-43.4134-1.4247-6.733-7.4269-4.7046-12.7076-4.9174v-18.375c0-1.6599,4.7118-6.375,6.375-6.375h124.875c.2651,3.6376-1.4503,11.8048,3.3905,12.7345l47.6112-.3578c1.8697-1.3662,2.0898-3.077,2.2843-5.2157,3.0112-33.1211-2.3695-70.7351.0147-104.3333-.3312-3.4978-1.3018-5.1898-4.9115-5.5787-13.6047-1.466-29.6497,1.1036-43.5278-.0126-1.8901-.1463-4.4754,1.5934-4.8614,3.3886ZM215.8451,155.4701c-10.2672,1.043-21.9501,4.8291-13.7374,17.0472l34.0178,33.5247-7.7754,31.6832-1.6639,1.3361-30.4592,8.2919-36.0978-35.1079c-12.4189-5.8376-14.7857,7.5664-15.41,16.8491-3.7148,55.2339,46.2467,92.1167,98.2587,75.7512l65.2654,64.5362c2.1432,1.7105,3.9705,3.3869,6.9733,2.4726l46.6722-44.839c1.4403-1.4509,2.3596-3.2679,1.5526-5.2913-15.6306-16.6078-31.8024-32.7436-48.0468-48.7438-1.1533-1.1359-2.6323-1.8276-3.7896-2.9604-2.5223-2.4689-15.7009-14.8508-16.4799-16.5386-1.0028-2.173,2.3795-13.7704,2.6535-17.5773,3.4876-48.46-33.1961-85.3847-81.9338-80.4338ZM76.2773,206.4059c-1.6022.4879-19.7284,21.8439-22.2588,24.9875-15.5979,19.378-29.4711,39.3519-18.662,65.1252,14.8878,35.4985,64.8305,37.8652,83.7459,4.4587,20.6312-36.4366-16.138-67.6398-36.9346-93.2707-1.3327-1.7196-3.923-1.8999-5.8905-1.3008Z"/>
  <path class="cls-1" d="M255,15.375c.386-1.7952,2.9713-3.5349,4.8614-3.3886,13.878,1.1161,29.923-1.4534,43.5278.0126,3.6096.389,4.5803,2.081,4.9115,5.5787-2.3842,33.5982,2.9966,71.2122-.0147,104.3333-.1944,2.1388-.4145,3.8495-2.2843,5.2157l-47.6112.3578c-4.8409-.9297-3.1254-9.0968-3.3905-12.7345h-124.875c-1.6632,0-6.375,4.7151-6.375,6.375v18.375c5.2807.2128,11.2829-1.8156,12.7076,4.9174-1.3579,13.2257,1.9879,30.7135-.0019,43.4134-.5647,3.6045-3.023,4.6618-6.2951,4.9549-32.9206,2.9492-70.1895-2.3101-103.5714,0-3.7226.0436-5.928-1.9872-6.3558-5.6442-1.1056-9.4529-.9128-32.3834-.018-42.0508.1732-1.8717,1.0996-5.5906,3.4094-5.5906h11.625c-.2993-14.1308-.4498-27.0503,3.058-40.817C48.3795,59.1574,83.6167,30.0085,124.1328,26.2578l130.8672-.0078c.4584-3.1928-.6319-7.9358,0-10.875ZM298.5,21.75h-33.75v96h33.75V21.75ZM255,36l-128.6558-.0308c-38.454,2.8377-72.0512,31.7284-79.6228,69.6272-2.262,11.3224-1.747,22.4078-1.7214,33.9036h69v-19.875c0-4.3718,9.4829-14.625,13.875-14.625h127.125V36ZM126.75,149.25H30v33.75h95.625l1.125-1.125v-32.625Z"/>
  <path class="cls-1" d="M215.8451,155.4701c48.7376-4.9509,85.4214,31.9737,81.9338,80.4338-.274,3.8069-3.6563,15.4044-2.6535,17.5773.7789,1.6878,13.9576,14.0697,16.4799,16.5386,1.1573,1.1328,2.6363,1.8245,3.7896,2.9604,16.2443,16.0001,32.4162,32.136,48.0468,48.7438.807,2.0234-.1124,3.8404-1.5526,5.2913l-46.6722,44.839c-3.0028.9142-4.8302-.7621-6.9733-2.4726l-65.2654-64.5362c-52.012,16.3655-101.9735-20.5173-98.2587-75.7512.6243-9.2826,2.9911-22.6867,15.41-16.8491l36.0978,35.1079,30.4592-8.2919,1.6639-1.3361,7.7754-31.6832-34.0178-33.5247c-8.2127-12.2182,3.4702-16.0043,13.7374-17.0472ZM172.7624,280.9876c14.2106,14.0022,35.0236,20.1093,54.6591,17.3089,6.6527-.9488,14.5985-5.4592,20.6057-2.1993l65.2007,63.8486,38.5085-37.0708-66.1384-65.8474c-3.022-5.5288,1.8447-14.5045,2.3902-21.1644,3.749-45.7672-33.0823-78.703-77.9874-69.3552,11.7647,12.2627,25.2696,23.2746,35.8386,36.5229.3682,2.1383.2431,4.2665-.0342,6.4035-.5978,4.6071-7.3603,31.0569-9.2383,34.2575-.7243,1.2343-2.2983,2.3922-3.375,3.375-10.9479,2.2745-24.2611,8.4815-35.0012,10.0089-2.0071.2855-3.3652.2914-5.3217-.3258-1.9522-.6158-13.2897-11.6689-15.8795-14.1145-6.2173-5.8713-13.0573-14.4721-19.4895-19.5111-.8062-.6316-.9151-1.6833-1.8884-.3881-4.1771,20.6445,2.0985,43.4197,17.1508,58.2512Z"/>
  <path class="cls-1" d="M76.2773,206.4059c1.9675-.5991,4.5578-.4188,5.8905,1.3008,20.7966,25.6308,57.5658,56.8341,36.9346,93.2707-18.9154,33.4064-68.8582,31.0398-83.7459-4.4587-10.8091-25.7733,3.0641-45.7472,18.662-65.1252,2.5304-3.1437,20.6567-24.4996,22.2588-24.9875ZM77.7428,219.0714c-17.756,21.1091-49.5829,49.1901-30.5113,79.0722,15.7037,24.6052,53.7021,21.5237,65.0901-5.447,12.131-28.7304-16.6223-52.6643-32.4632-72.9296l-2.1156-.6955Z"/>
  <path class="cls-2" d="M255,36v69h-127.125c-4.3921,0-13.875,10.2532-13.875,14.625v19.875H45c-.0256-11.4958-.5406-22.5812,1.7214-33.9036,7.5716-37.8988,41.1687-66.7895,79.6228-69.6272l128.6558.0308Z"/>
  <polygon class="cls-2" points="126.75 149.25 126.75 181.875 125.625 183 30 183 30 149.25 126.75 149.25"/>
  <rect class="cls-2" x="264.75" y="21.75" width="33.75" height="96"/>
  <path class="cls-2" d="M172.7624,280.9876c-15.0523-14.8315-21.3279-37.6068-17.1508-58.2512.9734-1.2952,1.0822-.2435,1.8884.3881,6.4322,5.039,13.2723,13.6397,19.4895,19.5111,2.5898,2.4457,13.9273,13.4988,15.8795,14.1145,1.9565.6172,3.3145.6112,5.3217.3258,10.7402-1.5275,24.0533-7.7344,35.0012-10.0089,1.0767-.9828,2.6507-2.1407,3.375-3.375,1.878-3.2006,8.6405-29.6504,9.2383-34.2575.2773-2.137.4024-4.2652.0342-6.4035-10.5689-13.2483-24.0738-24.2601-35.8386-36.5229,44.9052-9.3478,81.7365,23.588,77.9874,69.3552-.5455,6.6599-5.4122,15.6355-2.3902,21.1644l66.1384,65.8474-38.5085,37.0708-65.2007-63.8486c-6.0072-3.2599-13.953,1.2504-20.6057,2.1993-19.6355,2.8004-40.4484-3.3067-54.6591-17.3089Z"/>
  <path class="cls-2" d="M77.7428,219.0714l2.1156.6955c15.8409,20.2653,44.5942,44.1992,32.4632,72.9296-11.388,26.9707-49.3864,30.0523-65.0901,5.447-19.0716-29.8821,12.7554-57.9631,30.5113-79.0722ZM98.7946,273.1197c-5.1741.7964-3.9297,9.3579-6.6656,13.6342-2.5475,3.9818-8.9481,5.2791-7.0594,11.0345,3.1105,9.4785,15.4017-5.1335,17.2996-9.7943,1.7246-4.2353,4.0979-16.0553-3.5746-14.8745Z"/>
  <path class="cls-1" d="M98.7946,273.1197c7.6725-1.1809,5.2992,10.6392,3.5746,14.8745-1.8978,4.6608-14.1891,19.2728-17.2996,9.7943-1.8887-5.7554,4.5119-7.0527,7.0594-11.0345,2.7359-4.2763,1.4915-12.8379,6.6656-13.6342Z"/>
</svg>